<svg xmlns="http://www.w3.org/2000/svg" xmlns:xlink="http://www.w3.org/1999/xlink" enable-background="new 0 0 512 512" version="1.1" xml:space="preserve" width="325" height="391"><rect id="backgroundrect" width="100%" height="100%" x="0" y="0" fill="none" stroke="none"/>
    
<g class="currentLayer"><title>Layer 1</title><g id="svg_1" class="">
        <path d="M232.00001373291013,293.4000305175781 c2.1,1.8 1.3,4.3 1.3,6.5 c0,29.6 0,59.1 0,88.7 c0,0.6000000000000001 0.2,1.3 0.2,1.9 c-35.3,0 -70.7,0 -106,0 c0.4,-17.4 0.4,-34.9 0,-52.3 c3.2,0.1 1.7000000000000002,2.6 1.7000000000000002,3.9 c0.1,14 0.2,28 0,41.9 c-0.1,4 1.2,5.1 5.1,5.1 c30.8,-0.1 61.6,-0.2 92.4,0 c4.4,0 5.1,-1.5 5.1,-5.4 c-0.2,-25.3 -0.1,-50.6 -0.1,-75.9 C231.80001373291014,303.0000305175781 232.00001373291013,298.2000305175781 232.00001373291013,293.4000305175781 z" id="svg_2"/>
        <path d="M232.00001373291013,293.4000305175781 c-0.1,4.8 -0.2,9.6 -0.2,14.4 c0,25.3 -0.1,50.6 0.1,75.9 c0,3.9 -0.7000000000000001,5.5 -5.1,5.4 c-30.8,-0.2 -61.6,-0.2 -92.4,0 c-3.9,0 -5.2,-1.1 -5.1,-5.1 c0.2,-14 0.1,-28 0,-41.9 c0,-1.3 1.6,-3.8 -1.7000000000000002,-3.9 c-0.7000000000000001,0 -1.3,0.1 -2,0.1 c-1.3,-0.6000000000000001 -2.5,-0.5 -3.3,0.9 c-12.4,1.3 -24.9,2.3 -37.2,-0.8 c-21.8,-5.5 -37.4,-18.4 -47,-38.9 c-6.2,-13.4 -14.4,-25.8 -23.9,-37.2 c-3,-3.6 -7.8,-5 -11,-8.6 c-1.2,-1.4 -3.2,-2.5 -2.6,-4.4 c0.6000000000000001,-2.3 3.1,-2.2 5.1,-2.4 c20,-1.7000000000000002 34.2,7.8 44.1,24.2 c9.1,15 21,26.1 38.2,30.6 c12.2,3.2 24.4,2.5 36.4,-1.2 c2.8,-0.9 4.3,-2.1 4.6,-5.5 c0.9,-12.4 3.5,-24.4 12.1,-34.9 c-3.3,-0.6000000000000001 -5.9,-1.2 -8.6,-1.6 c-21.2,-3.2 -40.9,-10.5 -58,-23.6 c-19.1,-14.6 -31,-34.1 -34.7,-58 c-3.2,-20.9 -2,-41.9 0.7000000000000001,-62.8 c2.1,-16.1 6.6,-31.4 18.2,-43.4 c4.1,-4.2 4.4,-7.6 2.6,-12.9 c-6.1,-17.8 -4.4,-35.7 1.1,-53.5 c1,-3.3 2.5,-4.3 6.1,-3.4 c13.5,3.3 23.9,11.2 33.3,20.8 c4.6,4.6 8.5,9.8 12.3,15 c1.1,1.5 1.9,2.3 3.8,0.8 c7.2,-5.7 15.9,-7.5 24.6,-8.8 c25.2,-3.6 50.5,-3.7 75.7,-0.1 c8.4,1.2 16.9,2.7 23.9,8 c3.3,2.5 4.6,1.1 6.4,-1.5 c6.7,-9.8 14.9,-18.2 24.5,-25.1 c6.1,-4.4 12.9,-7.4 20.3,-9.2 c3.2,-0.8 4.5,0.1 5.5,3 c6.8,19.2 7.8,38.4 0.2,57.6 c-0.9,2.4 -1.5,4.1 0.7000000000000001,6.2 c12.3,11.6 18.1,26.4 20.5,42.7 c2.9,19.8 4.6,39.7 2.3,59.8 c-3.8,33.8 -21,58.4 -50.8,74.5 c-1.1,-0.1 -2,0.2 -2.4,1.3 c-0.8,0.4 -1.6,0.8 -2.3,1.1 c-2.6,0.1 -4.8,1.2 -6.6,2.9 c-0.8,0.30000000000000004 -1.7000000000000002,0.5 -2.5,0.8 c-1.2,-0.30000000000000004 -2,0.2 -2.5,1.2 c-0.5,0.1 -1.1,0.30000000000000004 -1.6,0.4 c-4,0.6000000000000001 -8,1.1 -11.4,3.5 c-0.5,0.1 -1.1,0.2 -1.6,0.30000000000000004 c-2.9,-0.1 -5.8,0.1 -8.3,1.9 c-2.2,0.30000000000000004 -4.3,0.6000000000000001 -6.5,0.9 c-1.7000000000000002,0.1 -3.6,-0.1 -5.1,0.5 c-1.6,0.7000000000000001 -0.9,1.7000000000000002 0.5,2.1 l0.1,0.1 c0.1,1.4 0.8,2.4 2.1,2.8 c0.8,1.6 1.6,3.2 2.4,4.7 c0.2,2.1 0.6000000000000001,4.1 2.4,5.5 c0.2,0.9 0.4,1.7000000000000002 0.6000000000000001,2.6 c0.5,2.8 0.5,5.6 2.1,8.1 c0.1,0.6000000000000001 0.2,1.2 0.30000000000000004,1.7000000000000002 c-0.6000000000000001,1.2 -0.30000000000000004,2.3 0.6000000000000001,3.3 C231.90001373291017,291.4000305175781 231.90001373291017,292.4000305175781 232.00001373291013,293.4000305175781 z" id="svg_3"/>
        <path d="M242.20001373291018,256.0000305175781 c3.4,-2.5 7.4,-2.9 11.4,-3.5 C249.90001373291017,254.00003051757812 246.50001373291013,256.4000305175781 242.20001373291018,256.0000305175781 z" id="svg_4"/>
        <path d="M232.30001373291014,258.2000305175781 c2.5,-1.8 5.4,-1.9 8.3,-1.9 C238.20001373291018,258.30003051757814 235.30001373291014,258.5000305175781 232.30001373291014,258.2000305175781 z" id="svg_5"/>
        <path d="M230.90001373291017,285.5000305175781 c-1.7000000000000002,-2.4 -1.7000000000000002,-5.3 -2.1,-8.1 C230.90001373291017,279.7000305175781 231.70001373291018,282.4000305175781 230.90001373291017,285.5000305175781 z" id="svg_6"/>
        <path d="M260.2000137329102,249.9000305175781 c1.9,-1.7000000000000002 4,-2.9 6.6,-2.9 C265.00001373291013,248.9000305175781 262.90001373291017,250.10003051757815 260.2000137329102,249.9000305175781 z" id="svg_7"/>
        <path d="M221.30001373291014,261.7000305175781 c-1.5,-0.4 -2.1,-1.4 -0.5,-2.1 c1.5,-0.6000000000000001 3.4,-0.4 5.1,-0.5 C224.80001373291014,260.80003051757814 221.90001373291017,259.30003051757814 221.30001373291014,261.7000305175781 z" id="svg_8"/>
        <path d="M228.20001373291018,274.80003051757814 c-1.8,-1.4 -2.2,-3.4 -2.4,-5.5 C227.90001373291017,270.60003051757815 228.00001373291013,272.7000305175781 228.20001373291018,274.80003051757814 z" id="svg_9"/>
        <path d="M231.80001373291014,290.5000305175781 c-0.9,-1 -1.1,-2 -0.6000000000000001,-3.3 C232.40001373291017,288.10003051757815 232.80001373291014,289.2000305175781 231.80001373291014,290.5000305175781 z" id="svg_10"/>
        <path d="M122.30001373291014,339.2000305175781 c0.8,-1.4 1.9,-1.4 3.3,-0.9 C124.70001373291015,339.30003051757814 123.70001373291015,339.80003051757814 122.30001373291014,339.2000305175781 z" id="svg_11"/>
        <path d="M223.50001373291013,264.60003051757815 c-1.4,-0.4 -2,-1.4 -2.1,-2.8 C222.90001373291017,262.10003051757815 223.60001373291016,263.10003051757815 223.50001373291013,264.60003051757815 z" id="svg_12"/>
        <path d="M269.2000137329102,245.9000305175781 c0.4,-1.1 1.4,-1.4 2.4,-1.3 C271.30001373291014,245.80003051757814 270.60001373291016,246.60003051757815 269.2000137329102,245.9000305175781 z" id="svg_13"/>
        <path d="M255.20001373291018,252.00003051757812 c0.5,-1.1 1.3,-1.5 2.5,-1.2 C257.30001373291014,251.9000305175781 256.60001373291016,252.60003051757815 255.20001373291018,252.00003051757812 z" id="svg_14"/>
    </g></g></svg>