<svg version="1.1" id="Layer_1" xmlns="http://www.w3.org/2000/svg" xmlns:xlink="http://www.w3.org/1999/xlink" x="0px" y="0px"
	 viewBox="0 0 28 30" style="enable-background:new 0 0 28 30;" xml:space="preserve">
<g id="sc-google-plus">
	<path d="M17.2,19.1c-0.6-0.8-1.2-1.4-2-2c-0.7-0.6-1.6-1.1-2.1-1.9c-1.1-1.8,1.3-3.2,2.3-4.4c2.4-2.6,1.7-7.5-1.3-9.4
		c0.7,0,1.8,0.2,2.5,0c0.8-0.2,1.7-1,2.4-1.4c-2.6,0-5.1,0-7.7,0C9,0,6.6,0.4,4.7,1.9C2.5,3.7,1.3,6.6,2.2,9.4
		c1,3.2,4.4,4.6,7.5,4.2c-0.2,0.7-0.5,1.2-0.4,1.9c0.1,0.9,0.6,1.7,1.1,2.4c-2.8,0.1-6.2,0.6-8.5,2.5c-2.1,1.8-2.8,5-0.9,7.2
		c2,2.3,5.6,2.7,8.4,2.5c2.5-0.2,4.9-1,6.7-2.7C18.3,25.1,19.1,21.6,17.2,19.1C16.9,18.7,17.5,19.5,17.2,19.1z M10.3,12.6
		c-5.1,0-7.4-11.3-1.5-11.3c2.9,0,4.2,3.2,4.7,5.7C13.9,9.4,13.4,12.6,10.3,12.6z M15.3,26.1c-1.7,2.9-6.4,2.6-9,1.5
		c-2.7-1.2-4.1-4.7-1.6-7c1.1-1,2.7-1.4,4.1-1.6c0.8-0.1,1.6-0.2,2.4-0.1c0.6,0.1,0.9,0.4,1.4,0.7C14.6,21.1,16.8,23.4,15.3,26.1
		C14.9,26.7,15.6,25.5,15.3,26.1z"/>
	<polygon points="28,4 24,4 24,0 22,0 22,4 18,4 18,6 22,6 22,10 24,10 24,6 28,6 	"/>
</g>
</svg>
