<svg xmlns="http://www.w3.org/2000/svg" xmlns:xlink="http://www.w3.org/1999/xlink" version="1.0" width="110.16763305664062" height="163.53756713867188" preserveAspectRatio="xMidYMid meet">
    <rect id="backgroundrect" width="100%" height="100%" x="0" y="0" fill="none" stroke="none"/>
    <g class="currentLayer" style=""><title>Layer 1</title><g transform="translate(0,260) scale(0.10000000149011612,-0.10000000149011612) " fill="#000000" stroke="none" id="svg_1" class="">
        <path d="M12.774609565734863,1789.7687663473837 l0,-807.8034400939941 l177.38350331783295,0 c97.30752182006836,0 177.38350331783295,3.029262900352478 178.397123336792,8.078034400939941 c0,4.039017200469971 2.027240037918091,152.4728993177414 3.0408600568771362,330.1896561384201 c1.0136200189590454,290.8092384338379 3.0408600568771362,327.1603932380676 20.272400379180908,361.4920394420624 c36.490320682525635,74.72181820869446 100.3483818769455,106.02420151233673 192.58780360221863,95.9266585111618 c53.72186100482941,-6.058525800704956 88.18494164943695,-30.29262900352478 119.60716223716736,-83.80960690975189 c22.299640417099,-40.39017200469971 23.313260436058044,-44.42918920516968 23.313260436058044,-375.6285996437073 l0,-336.24818193912506 l180.42436337471008,0 l180.42436337471008,0 l-3.0408600568771362,411.979754447937 c-3.0408600568771362,368.5603195428848 -5.068100094795227,416.018771648407 -21.286020398139954,461.45771515369415 c-42.57204079627991,116.12174451351166 -123.66164231300354,194.8825799226761 -238.20070445537567,233.2532433271408 c-52.70824098587036,18.175577402114868 -83.11684155464172,21.204840302467346 -158.12472295761108,19.18533170223236 c-113.52544212341309,-4.039017200469971 -173.32902324199677,-26.25361180305481 -244.28242456912994,-88.85837841033936 l-51.694620966911316,-45.43894350528717 l1.0136200189590454,299.8970271348953 c0,164.5899509191513 -1.0136200189590454,304.9457986354828 -3.0408600568771362,312.01407873630524 c-3.0408600568771362,9.087788701057434 -48.65376091003418,12.117051601409912 -180.42436337471008,12.117051601409912 l-176.3698832988739,0 l0,-807.8034400939941 z" id="svg_2"/>
</g></g></svg>
