<svg xmlns="http://www.w3.org/2000/svg" xmlns:xlink="http://www.w3.org/1999/xlink" version="1.1" width="430" height="411" style="enable-background:new 0 0 430.117 430.117;" xml:space="preserve"><rect id="backgroundrect" width="100%" height="100%" x="0" y="0" fill="none" stroke="none"/>
	
<g class="currentLayer"><title>Layer 1</title><g id="svg_1" class="">
		<path id="LinkedIn" d="M430.117,251.98500038909913 V411.0020003890991 h-92.188 V262.6350003890991 c0,-37.271 -13.334,-62.707 -46.703,-62.707 c-25.473,0 -40.632,17.142 -47.301,33.724 c-2.432,5.928 -3.058,14.179 -3.058,22.477 V411.0020003890991 h-92.219 c0,0 1.242,-251.285 0,-277.32 h92.21 v39.309 c-0.18700000000000003,0.29400000000000004 -0.43000000000000005,0.6110000000000001 -0.6060000000000001,0.8960000000000001 h0.6060000000000001 v-0.8960000000000001 c12.251,-18.869 34.13,-45.824 83.102,-45.824 C384.633,127.16600038909911 430.117,166.8030003890991 430.117,251.98500038909913 zM52.183,3.8909912092321974e-7 C20.635,3.8909912092321974e-7 0,20.693000389099122 0,47.90500038909912 c0,26.619 20.038,47.94 50.959,47.94 h0.6160000000000001 c32.159,0 52.159,-21.317 52.159,-47.94 C103.128,20.693000389099122 83.734,3.8909912092321974e-7 52.183,3.8909912092321974e-7 zM5.477,411.0020003890991 h92.184 v-277.32 H5.477 V411.0020003890991 z">
		</path>
	</g></g></svg>