<?xml version="1.0" encoding="utf-8"?>
<!-- Generator: Adobe Illustrator 19.0.1, SVG Export Plug-In . SVG Version: 6.00 Build 0)  -->
<svg version="1.1" id="Layer_1" xmlns="http://www.w3.org/2000/svg" xmlns:xlink="http://www.w3.org/1999/xlink" x="0px" y="0px"
	 viewBox="-290 382 30 30" style="enable-background:new -290 382 30 30;" xml:space="preserve">
<path class="st1" d="M-264,382.9h-8.8c-0.9,0-1.7,0.3-2.3,0.9l-13.1,13c-1.3,1.3-1.3,3.3,0,4.6l8.8,8.7c0.6,0.6,1.4,0.9,2.3,0.9
	c0.9,0,1.7-0.3,2.3-0.9l13.1-13.1c0.6-0.6,1-1.4,1-2.3v-8.7C-260.8,384.3-262.2,382.9-264,382.9z M-268,393.3
	c-1.8,0-3.3-1.5-3.3-3.3c0-1.8,1.5-3.3,3.3-3.3c1.8,0,3.3,1.5,3.3,3.3C-264.7,391.8-266.2,393.3-268,393.3z"/>
</svg>
