<svg xmlns="http://www.w3.org/2000/svg" xmlns:xlink="http://www.w3.org/1999/xlink" version="1.1" width="552" height="314" style="enable-background:new 0 0 548.358 548.358;" xml:space="preserve"><rect id="backgroundrect" width="100%" height="100%" x="0" y="0" fill="none" stroke="none"/>
	
<g class="currentLayer"><title>Layer 1</title><g id="svg_1" class="">
		<path d="M545.451,282.88901763367653 c-0.6640000000000003,-1.431 -1.283,-2.6180000000000003 -1.858,-3.569 c-9.514,-17.135 -27.695,-38.167 -54.532,-63.102 l-0.5670000000000002,-0.5710000000000002 l-0.2840000000000001,-0.28 l-0.2870000000000001,-0.2870000000000001 h-0.2880000000000001 c-12.18,-11.611 -19.893,-19.418 -23.123,-23.415 c-5.91,-7.614 -7.234,-15.321 -4.004,-23.13 c2.282,-5.9 10.854,-18.36 25.696,-37.397 c7.807,-10.089 13.99,-18.175 18.556,-24.267 c32.931,-43.78 47.208,-71.756 42.828,-83.939 l-1.701,-2.847 c-1.143,-1.714 -4.093,-3.282 -8.846,-4.712 c-4.764,-1.427 -10.853,-1.6630000000000005 -18.278,-0.7120000000000002 l-82.224,0.5680000000000002 c-1.332,-0.4720000000000001 -3.234,-0.4280000000000001 -5.712,0.14400000000000004 c-2.475,0.5720000000000002 -3.713,0.8590000000000002 -3.713,0.8590000000000002 l-1.431,0.7150000000000002 l-1.1360000000000001,0.8590000000000002 c-0.9520000000000002,0.5680000000000002 -1.999,1.5670000000000002 -3.142,2.995 c-1.137,1.423 -2.088,3.093 -2.848,4.996 c-8.952,23.031 -19.13,44.444 -30.553,64.238 c-7.043,11.803 -13.511,22.032 -19.418,30.693 c-5.899,8.658 -10.848,15.037 -14.842,19.126 c-4,4.093 -7.61,7.372 -10.852,9.849 c-3.237,2.478 -5.708,3.525 -7.4190000000000005,3.142 c-1.715,-0.3830000000000001 -3.33,-0.7630000000000002 -4.859,-1.143 c-2.6630000000000003,-1.714 -4.805,-4.045 -6.42,-6.995 c-1.622,-2.95 -2.714,-6.663 -3.285,-11.136 c-0.5680000000000002,-4.476 -0.904,-8.326 -1,-11.563 c-0.08900000000000004,-3.233 -0.048000000000000015,-7.806 0.14500000000000005,-13.706 c0.19800000000000006,-5.9030000000000005 0.2870000000000001,-9.897 0.2870000000000001,-11.991 c0,-7.234 0.14100000000000001,-15.085 0.4240000000000001,-23.555 c0.2880000000000001,-8.47 0.521,-15.181 0.7160000000000002,-20.125 c0.19400000000000006,-4.949 0.2840000000000001,-10.185 0.2840000000000001,-15.705 s-0.3360000000000002,-9.849 -1,-12.991 c-0.6560000000000002,-3.138 -1.6630000000000005,-6.184 -2.99,-9.137 c-1.335,-2.95 -3.289,-5.232 -5.853,-6.852 c-2.569,-1.618 -5.763,-2.902 -9.564,-3.856 c-10.089,-2.283 -22.936,-3.518 -38.547,-3.71 c-35.401,-0.3800000000000001 -58.148,1.9060000000000001 -68.236,6.855 c-3.997,2.091 -7.614,4.948 -10.848,8.562 c-3.427,4.189 -3.9050000000000002,6.475 -1.431,6.851 c11.422,1.711 19.508,5.804 24.267,12.275 l1.715,3.4290000000000003 c1.334,2.474 2.6660000000000004,6.854 3.999,13.134 c1.331,6.28 2.19,13.227 2.568,20.837 c0.9500000000000002,13.897 0.9500000000000002,25.793 0,35.689 c-0.9530000000000002,9.9 -1.8530000000000002,17.607 -2.712,23.127 c-0.8590000000000002,5.52 -2.143,9.993 -3.855,13.418 c-1.715,3.426 -2.856,5.52 -3.428,6.28 c-0.5710000000000002,0.7600000000000002 -1.047,1.239 -1.425,1.427 c-2.474,0.9480000000000002 -5.047,1.431 -7.71,1.431 c-2.6670000000000007,0 -5.901,-1.334 -9.707,-4 c-3.805,-2.6660000000000004 -7.7540000000000004,-6.328 -11.847,-10.992 c-4.093,-4.665 -8.709,-11.184 -13.85,-19.558 c-5.1370000000000005,-8.374 -10.467,-18.271 -15.987,-29.691 l-4.567,-8.282 c-2.855,-5.328 -6.755,-13.086 -11.704,-23.267 c-4.952,-10.185 -9.329,-20.037 -13.134,-29.554 c-1.521,-3.997 -3.806,-7.04 -6.851,-9.134 l-1.429,-0.8590000000000002 c-0.9500000000000002,-0.7600000000000002 -2.475,-1.5670000000000002 -4.567,-2.427 c-2.095,-0.8590000000000002 -4.281,-1.475 -6.567,-1.854 l-78.229,0.5680000000000002 c-7.994,0 -13.418,1.811 -16.274,5.428 l-1.143,1.711 C0.2880000000000001,22.737017633676516 0,24.259017633676535 0,26.354017633676534 c0,2.094 0.5710000000000002,4.664 1.714,7.707 c11.42,26.84 23.839,52.725 37.257,77.659 c13.418,24.934 25.078,45.019 34.973,60.237 c9.897,15.229 19.985,29.602 30.264,43.112 c10.279,13.515 17.083,22.176 20.412,25.981 c3.333,3.8120000000000003 5.9510000000000005,6.662 7.854,8.565 l7.139,6.851 c4.568,4.569 11.276,10.041 20.127,16.416 c8.853,6.3790000000000004 18.654,12.659 29.408,18.85 c10.756,6.181 23.269,11.225 37.546,15.126 c14.275,3.9050000000000002 28.169,5.472 41.684,4.716 h32.834 c6.659,-0.5750000000000002 11.704,-2.669 15.133,-6.283 l1.1360000000000001,-1.431 c0.7640000000000002,-1.1360000000000001 1.479,-2.901 2.1390000000000002,-5.276 c0.6680000000000003,-2.379 1,-5 1,-7.851 c-0.19500000000000006,-8.183 0.4280000000000001,-15.558 1.852,-22.124 c1.423,-6.564 3.045,-11.513 4.859,-14.846 c1.8130000000000002,-3.33 3.859,-6.14 6.136,-8.418 c2.282,-2.283 3.908,-3.6660000000000004 4.862,-4.142 c0.9480000000000002,-0.4790000000000001 1.705,-0.804 2.276,-0.999 c4.568,-1.522 9.944,-0.048000000000000015 16.136,4.429 c6.187,4.473 11.99,9.996 17.418,16.56 c5.425,6.57 11.943,13.941 19.555,22.124 c7.617,8.186 14.277,14.271 19.985,18.274 l5.708,3.426 c3.8120000000000003,2.286 8.761,4.38 14.853,6.283 c6.081,1.9020000000000001 11.409,2.378 15.984,1.427 l73.087,-1.1400000000000001 c7.229,0 12.854,-1.197 16.844,-3.572 c3.998,-2.379 6.373,-5 7.139,-7.851 c0.7640000000000002,-2.854 0.805,-6.092 0.14500000000000005,-9.712 C546.782,286.84101763367653 546.115,284.31601763367655 545.451,282.88901763367653 z" id="svg_2">
		</path>
	</g></g></svg>